<svg xmlns="http://www.w3.org/2000/svg" width="20" height="20" viewBox="0 0 24 24" fill="currentColor">
  <path d="M6.763 10.036c0 .296.032.535.088.71.064.176.144.368.256.576.04.063.056.127.056.183 0 .08-.048.16-.152.24l-.503.335c-.072.048-.144.071-.208.071-.08 0-.16-.04-.239-.112-.112-.12-.207-.248-.279-.383-.072-.135-.144-.296-.207-.495-.527.622-1.199.934-2.015.934-.576 0-1.035-.16-1.375-.48-.34-.319-.511-.75-.511-1.286 0-.568.2-1.022.607-1.365.407-.344.936-.516 1.591-.516.22 0 .447.016.687.056.24.04.487.088.743.152v-.503c0-.52-.112-.888-.328-1.103-.223-.215-.6-.32-1.128-.32-.24 0-.487.032-.735.088-.248.056-.487.12-.719.2-.104.04-.184.063-.231.071-.048.008-.08.008-.104.008-.096 0-.144-.071-.144-.215v-.335c0-.112.016-.2.04-.255.024-.056.072-.112.144-.16.24-.127.527-.232.863-.32.336-.087.695-.127 1.08-.127.823 0 1.423.191 1.807.567.375.376.567.943.567 1.702v2.24zm-2.78 1.047c.216 0 .44-.04.679-.112.24-.072.455-.2.647-.367.112-.104.2-.215.247-.335.048-.12.08-.263.080-.423v-.607c-.184-.048-.383-.08-.591-.104-.207-.023-.415-.032-.615-.032-.44 0-.759.088-.967.272-.207.184-.312.440-.312.775 0 .319.08.567.256.735.168.175.423.26.776.26zm5.04.704c-.12 0-.2-.023-.24-.071-.04-.048-.08-.144-.104-.287L7.048 6.73c-.023-.144-.04-.24-.04-.287 0-.112.056-.175.168-.175h.686c.127 0 .207.023.247.071.04.048.072.144.096.287l1.511 5.951 1.407-5.951c.016-.144.048-.24.088-.287.04-.048.127-.071.247-.071h.559c.12 0 .207.023.247.071.04.048.08.144.088.287l1.423 6.015 1.551-6.015c.023-.144.064-.24.096-.287.04-.048.12-.071.247-.071h.647c.112 0 .175.056.175.175 0 .032-.008.071-.016.112-.008.04-.024.104-.048.2L14.26 11.42c-.023.144-.064.24-.104.287-.04.048-.12.071-.24.071h-.599c-.12 0-.207-.024-.247-.071-.04-.048-.08-.144-.088-.287L11.56 6.378 10.14 11.34c-.016.144-.048.24-.088.287-.04.048-.127.071-.247.071h-.599zm7.455.151c-.296 0-.591-.032-.879-.096-.287-.064-.511-.128-.671-.2-.112-.048-.191-.104-.231-.151-.04-.048-.056-.104-.056-.168v-.335c0-.144.056-.215.16-.215.04 0 .08.008.12.016.04.008.104.032.175.056.248.104.511.184.791.232.287.048.567.071.847.071.447 0 .791-.08 1.047-.24.255-.16.383-.399.383-.719 0-.215-.064-.399-.191-.551-.127-.152-.351-.295-.671-.423l-.967-.303c-.487-.152-.847-.375-1.063-.671-.215-.295-.327-.623-.327-.975 0-.279.064-.527.184-.743.12-.215.279-.399.487-.543.207-.144.447-.248.719-.32.271-.071.559-.104.855-.104.127 0 .255.008.383.032.127.023.247.048.367.08.112.032.215.071.31.112.096.04.168.08.215.12.048.04.08.08.104.127.023.048.032.104.032.168v.32c0 .144-.056.215-.168.215-.056 0-.144-.024-.247-.071-.391-.183-.831-.271-1.319-.271-.4 0-.719.064-.951.2-.231.135-.351.351-.351.647 0 .215.072.4.207.559.135.16.375.303.719.44l.951.303c.479.152.823.359 1.031.615.207.255.312.559.312.903 0 .287-.056.543-.175.767-.112.223-.271.415-.479.567-.207.151-.455.263-.743.335-.287.071-.591.104-.903.104z"/>
  <path d="M17.516 16.199c-1.751 1.294-4.294 1.982-6.478 1.982-3.063 0-5.822-1.135-7.908-3.022-.16-.144-.016-.343.175-.231 2.207 1.286 4.934 2.063 7.749 2.063 1.902 0 3.99-.399 5.918-1.215.287-.127.535.191.264.423z"/>
  <path d="M18.204 15.367c-.223-.287-1.479-.135-2.047-.071-.167.024-.191-.127-.04-.231.999-.703 2.639-.503 2.831-.263.191.24-.048 1.918-.999 2.718-.144.12-.287.056-.223-.104.215-.535.695-1.735.478-2.049z"/>
</svg>